<?xml version="1.0" standalone="no"?>
<!DOCTYPE svg PUBLIC "-//W3C//DTD SVG 20010904//EN"
 "http://www.w3.org/TR/2001/REC-SVG-20010904/DTD/svg10.dtd">
<svg version="1.0" xmlns="http://www.w3.org/2000/svg"
 width="260.000000pt" height="260.000000pt" viewBox="0 0 260.000000 260.000000"
 preserveAspectRatio="xMidYMid meet">
<metadata>
Created by potrace 1.11, written by Peter Selinger 2001-2013
</metadata>
<g transform="translate(0.000000,260.000000) scale(0.100000,-0.100000)"
fill="#000000" stroke="none">
<path d="M305 1848 c-3 -13 -41 -243 -85 -513 -44 -269 -83 -503 -86 -518 l-6
-28 103 3 103 3 55 339 56 339 57 -179 c31 -99 79 -252 108 -341 l51 -163 93
0 94 0 45 143 c25 78 74 232 109 341 l63 199 56 -339 55 -339 103 -3 103 -3
-6 28 c-3 15 -42 249 -86 518 -44 270 -82 500 -85 513 -5 21 -10 22 -108 22
l-102 0 -120 -376 c-114 -359 -120 -374 -131 -342 -6 18 -60 187 -119 376
l-109 342 -103 0 c-98 0 -103 -1 -108 -22z"/>
<path d="M1500 1863 c0 -4 87 -247 193 -540 l192 -533 100 0 100 0 193 533
c105 293 192 536 192 540 0 4 -47 7 -104 7 l-103 0 -139 -384 -139 -384 -139
384 -138 384 -104 0 c-57 0 -104 -3 -104 -7z"/>
</g>
</svg>
